<svg height="512pt" viewBox="-68 0 512 512.00012" width="512pt" xmlns="http://www.w3.org/2000/svg"><path d="m366.933594 187.734375c0 98.96875-80.230469 179.199219-179.199219 179.199219-4.351563 0-8.617187-.171875-12.800781-.511719-1.621094-.085937-3.242188-.171875-4.863282-.339844-2.046874-.257812-4.011718-.597656-6.058593-.855469-3.667969-.511718-7.425781-1.023437-11.09375-1.707031-2.390625-.511719-4.691407-1.109375-7.082031-1.707031-3.15625-.765625-6.402344-1.535156-9.472657-2.472656-2.476562-.683594-4.863281-1.621094-7.339843-2.476563-2.898438-.9375-5.800782-1.960937-8.617188-3.070312-2.390625-1.023438-4.777344-2.132813-7.167969-3.242188-2.730469-1.195312-5.375-2.476562-8.023437-3.839843-2.386719-1.195313-4.605469-2.5625-6.910156-3.839844-2.558594-1.453125-5.035157-2.988282-7.507813-4.609375-2.21875-1.367188-4.355469-2.816407-6.488281-4.351563-2.472656-1.707031-4.777344-3.5-7.167969-5.375-1.960937-1.539062-3.925781-3.160156-5.886719-4.78125l-2.816406-2.304687v-.253907c-53.734375-47.882812-73.5625-123.292968-50.320312-191.410156 23.238281-68.117187 85.023437-115.6875 156.816406-120.738281 4.183594-.34375 8.535156-.511719 12.800781-.511719 55.285156-.003906 107.460937 25.578125 141.3125 69.289063h.253906c1.707031 2.21875 3.328125 4.609375 4.949219 6.910156.855469 1.28125 1.792969 2.476563 2.648438 3.757813 2.898437 4.351562 5.714843 8.875 8.277343 13.566406.425781.851562.851563 1.792968 1.277344 2.644531 2.050781 3.839844 3.925781 7.765625 5.71875 11.777344.765625 1.875 1.449219 3.839843 2.21875 5.71875 1.28125 3.15625 2.472656 6.3125 3.496094 9.554687.683593 2.050782 1.28125 4.183594 1.964843 6.316406.851563 3.242188 1.707032 6.484376 2.472657 9.8125.515625 2.046876.941406 4.179688 1.367187 6.316407.683594 3.667969 1.195313 7.335937 1.707032 11.007812.171874 1.875.511718 3.667969.683593 5.546875.511719 5.628906.851563 11.261719.851563 16.980469zm0 0" fill="#fec108"/><path d="m341.335938 187.734375c.042968 94.011719-72.625 172.046875-166.402344 178.6875-1.621094-.085937-3.242188-.171875-4.863282-.339844-2.046874-.257812-4.011718-.597656-6.058593-.855469-3.667969-.511718-7.425781-1.023437-11.09375-1.707031-2.390625-.511719-4.691407-1.109375-7.082031-1.707031-3.15625-.765625-6.402344-1.535156-9.472657-2.472656-2.476562-.683594-4.863281-1.621094-7.339843-2.476563-2.898438-.9375-5.800782-1.960937-8.617188-3.070312-2.390625-1.023438-4.777344-2.132813-7.167969-3.242188-2.730469-1.195312-5.375-2.476562-8.023437-3.839843-2.386719-1.195313-4.605469-2.5625-6.910156-3.839844-2.558594-1.453125-5.035157-2.988282-7.507813-4.609375-2.21875-1.367188-4.355469-2.816407-6.488281-4.351563-2.472656-1.707031-4.777344-3.5-7.167969-5.375-1.960937-1.539062-3.925781-3.160156-5.886719-4.78125l-2.816406-2.304687v-.253907c-53.734375-47.882812-73.5625-123.292968-50.320312-191.410156 23.238281-68.117187 85.023437-115.6875 156.816406-120.738281 50.664062 3.621094 97.394531 28.628906 128.511718 68.777344h.257813c1.707031 2.21875 3.328125 4.609375 4.949219 6.910156.851562 1.28125 1.789062 2.476563 2.644531 3.757813 2.902344 4.351562 5.71875 8.875 8.277344 13.566406.425781.851562.851562 1.792968 1.28125 2.644531 2.046875 3.839844 3.925781 7.765625 5.714843 11.777344.769532 1.875 1.453126 3.839843 2.21875 5.71875 1.28125 3.15625 2.476563 6.3125 3.5 9.554687.683594 2.050782 1.28125 4.183594 1.960938 6.316406.855469 3.242188 1.707031 6.484376 2.476562 9.8125.511719 2.046876.9375 4.179688 1.363282 6.316407.683594 3.667969 1.195312 7.335937 1.707031 11.007812.171875 1.875.511719 3.667969.683594 5.546875.511719 5.628906.855469 11.261719.855469 16.980469zm0 0" fill="#fdd834"/><path d="m187.734375 0c-71.386719-.0664062-136.625 40.398438-168.28125 104.382812-31.65625 63.984376-24.246094 140.390626 19.117187 197.101563 6.945313 9.191406 14.746094 17.707031 23.296876 25.425781 5.734374 5.207032 11.804687 10.023438 18.175781 14.421875 64.582031 45.511719 150.800781 45.511719 215.382812 0 6.371094-4.398437 12.441407-9.214843 18.175781-14.421875 57.621094-52.050781 77.234376-134.214844 49.335938-206.679687-27.902344-72.464844-97.550781-120.261719-175.203125-120.230469zm0 358.398438c-46.332031.019531-90.667969-18.839844-122.796875-52.222657-2.730469-2.730469-5.289062-5.632812-7.679688-8.53125-2.386718-2.734375-4.605468-5.546875-6.824218-8.535156-52.101563-70.523437-42.285156-169.054687 22.707031-227.914063 64.996094-58.855468 164.015625-58.886718 229.042969-.070312 65.03125 58.816406 74.910156 157.339844 22.851562 227.898438-2.132812 2.988281-4.351562 5.804687-6.742187 8.535156-2.386719 2.898437-5.035157 5.800781-7.679688 8.53125-32.117187 33.457031-76.5 52.351562-122.878906 52.308594zm0 0" fill="#ff5364"/><path d="m337.921875 297.558594c.007813 1.234375-.253906 2.457031-.769531 3.582031-.171875.34375-.425782.683594-.597656 1.023437-40.789063 79.957032-103.507813 166.144532-128.683594 199.597657-4.703125 6.414062-12.179688 10.214843-20.136719 10.238281-7.234375.011719-14.109375-3.171875-18.773437-8.703125-.511719-.511719-.9375-1.023437-1.367188-1.535156-42.003906-55.476563-80.398438-113.59375-114.941406-173.996094-4.949219-8.789063-9.644532-17.578125-14.082032-26.28125-1.328124-2.644531-1.199218-5.785156.347657-8.304687 1.546875-2.523438 4.289062-4.0625 7.246093-4.070313h4.269532c2.21875 2.988281 4.4375 5.800781 6.824218 8.535156 2.390626 2.898438 4.949219 5.800781 7.679688 8.53125 58.144531 60.414063 151.605469 69.535157 220.332031 21.503907 9.152344-6.324219 17.644531-13.558594 25.34375-21.589844 2.644531-2.730469 5.292969-5.632813 7.679688-8.53125 2.390625-2.730469 4.609375-5.546875 6.742187-8.535156h4.351563c2.265625 0 4.433593.898437 6.035156 2.5 1.601563 1.601562 2.5 3.769531 2.5 6.035156zm0 0" fill="#ad1457"/><path d="m285.269531 327.679688c-34.589843 60.421874-73.011719 118.566406-115.027343 174.082031l-1.28125 1.535156c-.511719-.511719-.9375-1.023437-1.367188-1.535156-42.003906-55.476563-80.398438-113.59375-114.941406-173.996094 33.914062 23.609375 75.234375 34.128906 116.308594 29.609375 41.085937 4.523438 82.417968-6.027344 116.308593-29.695312zm0 0" fill="#e91e63"/><path d="m153.601562 102.398438c0 18.851562-15.28125 34.136718-34.132812 34.136718-4.398438.03125-8.753906-.839844-12.800781-2.5625-12.890625-5.183594-21.332031-17.679687-21.332031-31.574218 0-13.890626 8.441406-26.386719 21.332031-31.570313 4.046875-1.722656 8.402343-2.59375 12.800781-2.5625 9.050781 0 17.734375 3.597656 24.132812 10 6.402344 6.398437 10 15.082031 10 24.132813zm0 0" fill="#bfa885"/><path d="m290.132812 102.398438c0 18.851562-15.28125 34.136718-34.132812 34.136718-4.394531.03125-8.753906-.839844-12.800781-2.5625-12.886719-5.183594-21.332031-17.679687-21.332031-31.574218 0-13.890626 8.445312-26.386719 21.332031-31.570313 4.046875-1.722656 8.40625-2.59375 12.800781-2.5625 18.851562 0 34.132812 15.28125 34.132812 34.132813zm0 0" fill="#bfa885"/><path d="m128 102.398438c0-17.4375-9.550781-31.570313-21.332031-31.570313s-21.332031 14.132813-21.332031 31.570313 9.550781 31.574218 21.332031 31.574218 21.332031-14.136718 21.332031-31.574218zm0 0" fill="#ffecb3"/><path d="m264.535156 102.398438c0-17.4375-9.550781-31.570313-21.335937-31.570313-11.78125 0-21.332031 14.132813-21.332031 31.570313s9.550781 31.574218 21.332031 31.574218c11.785156 0 21.335937-14.136718 21.335937-31.574218zm0 0" fill="#ffecb3"/><path d="m290.132812 238.933594v34.132812c-.027343 9.414063-7.652343 17.039063-17.066406 17.066406h-34.132812c-9.414063-.027343-17.039063-7.652343-17.066406-17.066406v-34.132812zm0 0" fill="#bfa885"/><path d="m294.402344 213.25 4.265625 8.617188 5.460937 10.921874c.648438 1.324219.566406 2.890626-.214844 4.140626s-2.152343 2.007812-3.625 2.003906h-88.578124c-1.472657.003906-2.84375-.753906-3.625-2.003906s-.863282-2.816407-.214844-4.140626l1.195312-2.390624 4.269532-8.53125 4.265624-8.617188c-7.535156-1.96875-12.792968-8.769531-12.800781-16.554688v-43.011718c.019531-9.429688 7.636719-17.085938 17.066407-17.148438h68.265624c9.433594.0625 17.050782 7.71875 17.066407 17.148438v43.011718c-.007813 7.785157-5.265625 14.585938-12.796875 16.554688zm0 0" fill="#6a1b9a"/><path d="m268.800781 204.714844 4.265625 8.617187 5.460938 10.925781c.648437 1.320313.570312 2.886719-.210938 4.136719s-2.152344 2.007813-3.628906 2.003907h-65.621094l4.269532-8.53125 4.265624-8.617188c-7.535156-1.96875-12.792968-8.769531-12.800781-16.554688v-43.011718c.019531-9.429688 7.636719-17.085938 17.066407-17.148438h57.34375c1.570312 2.597656 2.398437 5.578125 2.390624 8.617188v43.007812c-.007812 7.785156-5.265624 14.585938-12.800781 16.554688zm0 0" fill="#9d27b0"/><path d="m170.667969 153.601562v43.09375c.003906 7.890626-5.386719 14.765626-13.058594 16.636719h-4.007813v59.734375c-.027343 9.414063-7.652343 17.039063-17.066406 17.066406h-34.132812c-9.425782 0-17.066406-7.640624-17.066406-17.066406v-59.734375h-4.011719c-7.667969-1.871093-13.0625-8.746093-13.058594-16.636719v-43.09375c.03125-9.414062 7.65625-17.039062 17.070313-17.066406h68.265624c9.414063.027344 17.039063 7.652344 17.066407 17.066406zm0 0" fill="#0377bc"/><path d="m145.066406 145.066406v43.09375c.007813 7.894532-5.386718 14.765625-13.054687 16.640625h-4.011719v59.734375c-.027344 9.414063-7.652344 17.035156-17.066406 17.066406h-23.296875c-1.503907-2.59375-2.296875-5.539062-2.300781-8.535156v-59.734375h-4.011719c-7.667969-1.871093-13.0625-8.746093-13.058594-16.636719v-43.09375c.03125-9.414062 7.65625-17.039062 17.070313-17.066406h57.425781c1.503906 2.589844 2.300781 5.535156 2.304687 8.53125zm0 0" fill="#02a9f4"/><path d="m39.117188 302.566406c40.816406 79.796875 103.390624 165.820313 128.433593 199.195313 4.714844 6.429687 12.210938 10.230469 20.183594 10.230469s15.46875-3.800782 20.179687-10.230469c25.132813-33.445313 87.894532-119.734375 128.683594-199.679688.101563-.164062.144532-.351562.230469-.515625 25.191406-32.585937 38.789063-72.644531 38.640625-113.832031 0-103.683594-84.050781-187.734375-187.734375-187.734375s-187.734375 84.050781-187.734375 187.734375c-.105469 41.5625 13.660156 81.976563 39.117188 114.832031zm155.152343 188.953125c-1.53125 2.074219-3.957031 3.300781-6.535156 3.300781s-5.003906-1.226562-6.535156-3.300781c-36.210938-48.089843-69.875-98.042969-100.855469-149.65625 64.585938 45.222657 150.601562 45.078125 215.039062-.359375-31.054687 51.742188-64.804687 101.816406-101.113281 150.015625zm-6.535156-474.453125c70.132813-.09375 133.15625 42.796875 158.796875 108.074219 16.339844 41.570313 15.789062 87.882813-1.535156 129.050781-17.472656 40.800782-49.976563 73.3125-90.769532 90.792969-44.382812 18.691406-94.589843 17.796875-138.277343-2.464844-43.6875-20.257812-76.800781-58.007812-91.203125-103.960937-5.082032-16.464844-7.671875-33.59375-7.679688-50.824219.109375-94.210937 76.457032-170.558594 170.667969-170.667969zm0 0"/><path d="m190.976562 384.683594c-2.078124-.855469-4.40625-.855469-6.484374 0-1.054688.390625-2.015626 1-2.816407 1.792968-.773437.8125-1.378906 1.769532-1.792969 2.8125-.4375 1.027344-.667968 2.128907-.683593 3.246094.019531.570313.078125 1.140625.171875 1.703125.09375.535157.265625 1.054688.511718 1.539063.1875.542968.445313 1.058594.769532 1.535156.3125.445312.65625.875 1.023437 1.28125 3.363281 3.296875 8.75 3.296875 12.117188 0 .367187-.40625.707031-.835938 1.023437-1.28125.324219-.476562.582032-.992188.769532-1.535156.246093-.484375.417968-1.003906.511718-1.539063.09375-.5625.152344-1.132812.167969-1.703125-.03125-2.261718-.914063-4.425781-2.472656-6.058594-.800781-.792968-1.761719-1.402343-2.816407-1.792968zm0 0"/><path d="m187.734375 418.132812c-4.714844 0-8.535156 3.820313-8.535156 8.535157v25.597656c0 4.714844 3.820312 8.535156 8.535156 8.535156 4.710937 0 8.53125-3.820312 8.53125-8.535156v-25.597656c0-4.714844-3.820313-8.535157-8.53125-8.535157zm0 0"/><path d="m76.800781 220.40625v52.660156c0 14.140625 11.460938 25.601563 25.601563 25.601563h34.132812c14.136719 0 25.597656-11.460938 25.597656-25.601563v-52.660156c10.222657-3.628906 17.054688-13.292969 17.066407-24.140625v-42.664063c0-14.140624-11.460938-25.601562-25.597657-25.601562h-.222656c5.648438-7.34375 8.722656-16.335938 8.753906-25.601562 0-23.5625-19.101562-42.664063-42.664062-42.664063-23.566406 0-42.667969 19.101563-42.667969 42.664063.03125 9.265624 3.109375 18.257812 8.753907 25.601562h-.21875c-14.140626 0-25.601563 11.460938-25.601563 25.601562v42.664063c.011719 10.847656 6.847656 20.511719 17.066406 24.140625zm17.066407-118.007812c0-14.136719 11.460937-25.597657 25.601562-25.597657 14.136719 0 25.597656 11.460938 25.597656 25.597657 0 14.140624-11.460937 25.601562-25.597656 25.601562-14.140625 0-25.601562-11.460938-25.601562-25.601562zm-17.066407 51.203124c0-4.714843 3.820313-8.535156 8.535157-8.535156h68.265624c4.710938 0 8.53125 3.820313 8.53125 8.535156v42.664063c0 4.714844-3.820312 8.535156-8.53125 8.535156-4.714843 0-8.535156 3.820313-8.535156 8.53125v59.734375c0 4.714844-3.820312 8.535156-8.53125 8.535156h-8.535156v-51.203124c0-4.710938-3.820312-8.53125-8.53125-8.53125-4.714844 0-8.535156 3.820312-8.535156 8.53125v51.203124h-8.53125c-4.714844 0-8.535156-3.820312-8.535156-8.535156v-59.734375c0-4.710937-3.820313-8.53125-8.53125-8.53125-4.714844 0-8.535157-3.820312-8.535157-8.535156zm0 0"/><path d="m206.429688 216.585938-9.265626 18.53125c-1.324218 2.648437-1.179687 5.789062.375 8.304687 1.554688 2.515625 4.304688 4.046875 7.261719 4.042969h8.535157v25.601562c0 14.140625 11.460937 25.601563 25.597656 25.601563h34.132812c14.140625 0 25.601563-11.460938 25.601563-25.601563v-25.601562h8.53125c2.96875.019531 5.726562-1.507813 7.292969-4.023438 1.566406-2.519531 1.714843-5.667968.386718-8.324218l-9.265625-18.53125c6.382813-4.804688 10.128907-12.332032 10.121094-20.320313v-42.664063c0-14.140624-11.460937-25.601562-25.601563-25.601562h-.21875c5.644532-7.34375 8.722657-16.335938 8.753907-25.601562 0-23.5625-19.101563-42.664063-42.667969-42.664063-23.5625 0-42.664062 19.101563-42.664062 42.664063.03125 9.265624 3.105468 18.257812 8.753906 25.601562h-.222656c-14.136719 0-25.601563 11.460938-25.601563 25.601562v42.664063c.003906 7.996094 3.769531 15.523437 10.164063 20.320313zm23.972656 56.480468v-25.601562h17.066406v34.136718h-8.535156c-4.710938 0-8.53125-3.820312-8.53125-8.535156zm51.199218 0c0 4.714844-3.820312 8.535156-8.535156 8.535156h-8.53125v-34.136718h17.066406zm-51.199218-170.667968c0-14.136719 11.460937-25.597657 25.597656-25.597657 14.140625 0 25.601562 11.460938 25.601562 25.597657 0 14.140624-11.460937 25.601562-25.601562 25.601562-14.136719 0-25.597656-11.460938-25.597656-25.601562zm-17.066406 51.203124c0-4.714843 3.820312-8.535156 8.53125-8.535156h68.265624c4.714844 0 8.535157 3.820313 8.535157 8.535156v42.664063c-.035157 1.457031-.445313 2.882813-1.195313 4.132813l-8.191406-16.480469c-2.105469-4.21875-7.234375-5.929688-11.453125-3.820313-4.21875 2.105469-5.929687 7.230469-3.820313 11.449219l19.386719 38.851563h-74.785156l19.472656-38.851563c2.105469-4.21875.394531-9.34375-3.824219-11.449219-4.21875-2.109375-9.34375-.398437-11.453124 3.820313l-8.234376 16.480469c-.761718-1.246094-1.191406-2.671876-1.234374-4.132813zm0 0"/></svg>